<svg xmlns="http://www.w3.org/2000/svg" width="257" height="49" viewBox="0 0 257 49">
  <defs>
    <style>
      .cls-1 {
        fill: #4073de;
        fill-rule: evenodd;
      }
    </style>
  </defs>
  <g id="Text">
    <g id="Title">
      <path id="Swimming_" data-name="Swimming®" class="cls-1" d="M19.544,31.781A7.769,7.769,0,0,1,14.6,33.114,8.94,8.94,0,0,1,8.749,31.42a5.864,5.864,0,0,1-2.042-4.781h-6.3a10.021,10.021,0,0,0,1.83,5.977,12.15,12.15,0,0,0,5.13,4.022A17.712,17.712,0,0,0,14.6,38.094q5.952,0,9.426-2.677A8.628,8.628,0,0,0,27.5,28.208a9.6,9.6,0,0,0-1.2-4.868,10.817,10.817,0,0,0-3.76-3.686,27.959,27.959,0,0,0-6.8-2.864A21.21,21.21,0,0,1,9.67,14.2a3.974,3.974,0,0,1-1.843-3.324A4.4,4.4,0,0,1,9.533,7.19a7.675,7.675,0,0,1,4.794-1.32,7.349,7.349,0,0,1,5.092,1.606A5.682,5.682,0,0,1,21.2,11.922h6.275a10.188,10.188,0,0,0-1.693-5.715,11.081,11.081,0,0,0-4.657-3.972A15.672,15.672,0,0,0,14.377.84,14.463,14.463,0,0,0,5.1,3.679,8.835,8.835,0,0,0,1.527,10.9q0,5.005,4.956,8.118a29.255,29.255,0,0,0,6.973,2.939,20.238,20.238,0,0,1,6.064,2.615A4.378,4.378,0,0,1,21.2,28.258,4.3,4.3,0,0,1,19.544,31.781Zm31.187-21.13H46.174l-5.528,18.4-4.358-18.4h-5.9L37.757,37.6h4.98l5.678-18.5,5.777,18.5h4.98l7.346-26.944h-5.9l-4.283,18.6Zm26.371,0H71.05V37.6H77.1V10.652ZM71.561,5.933a3.364,3.364,0,0,0,2.527.909,3.407,3.407,0,0,0,2.54-.909,3.113,3.113,0,0,0,.9-2.279,3.188,3.188,0,0,0-.9-2.316,3.382,3.382,0,0,0-2.54-.921,3.34,3.34,0,0,0-2.527.921,3.211,3.211,0,0,0-.884,2.316A3.136,3.136,0,0,0,71.561,5.933Zm12.091,4.719V37.6H89.7V18.073a5.327,5.327,0,0,1,5.155-2.963q4.731,0,4.856,4.756V37.6h6.052L105.74,19.119a5.85,5.85,0,0,1,1.83-2.9,5.039,5.039,0,0,1,3.374-1.108,4.906,4.906,0,0,1,3.711,1.2,5.36,5.36,0,0,1,1.121,3.76V37.6h6.051V19.891q-0.051-4.806-2.229-7.271t-6.636-2.465a9.558,9.558,0,0,0-8.268,4.134q-1.992-4.133-7.4-4.134a9.7,9.7,0,0,0-7.77,3.312l-0.174-2.814h-5.7Zm44,0V37.6H133.7V18.073a5.326,5.326,0,0,1,5.155-2.963q4.731,0,4.856,4.756V37.6h6.051L149.74,19.119a5.85,5.85,0,0,1,1.83-2.9,5.039,5.039,0,0,1,3.374-1.108,4.906,4.906,0,0,1,3.711,1.2,5.36,5.36,0,0,1,1.121,3.76V37.6h6.051V19.891q-0.051-4.806-2.229-7.271t-6.636-2.465a9.558,9.558,0,0,0-8.268,4.134q-1.992-4.133-7.4-4.134a9.7,9.7,0,0,0-7.77,3.312l-0.174-2.814h-5.7Zm50.449,0H172.05V37.6H178.1V10.652ZM172.56,5.933a3.366,3.366,0,0,0,2.528.909,3.407,3.407,0,0,0,2.54-.909,3.112,3.112,0,0,0,.9-2.279,3.186,3.186,0,0,0-.9-2.316,3.382,3.382,0,0,0-2.54-.921,3.342,3.342,0,0,0-2.528.921,3.213,3.213,0,0,0-.884,2.316A3.138,3.138,0,0,0,172.56,5.933Zm12.017,4.719V37.6h6.051V18.421a5.831,5.831,0,0,1,5.454-3.312,4.662,4.662,0,0,1,3.623,1.233,5.548,5.548,0,0,1,1.108,3.8V37.6h6.051V19.791q-0.149-9.637-8.566-9.637a9.688,9.688,0,0,0-7.844,3.611l-0.175-3.113h-5.7Zm30.029,23.682a9.449,9.449,0,0,0,7.733,3.76,8.908,8.908,0,0,0,6.972-2.913V37a6.252,6.252,0,0,1-1.743,4.794,6.685,6.685,0,0,1-4.756,1.631,8.648,8.648,0,0,1-6.873-3.312l-2.864,3.636a10.281,10.281,0,0,0,4.3,3.225A14.343,14.343,0,0,0,223.16,48.2q5.6,0,8.9-3.063a10.86,10.86,0,0,0,3.3-8.367V10.652h-5.453l-0.274,2.714a8.873,8.873,0,0,0-7.247-3.212,9.47,9.47,0,0,0-7.831,3.748q-2.952,3.748-2.951,10.023Q211.606,30.574,214.606,34.334Zm4.682-16.859a5.346,5.346,0,0,1,4.644-2.366,5.739,5.739,0,0,1,5.379,3.063V30.026a5.824,5.824,0,0,1-5.429,3.138,5.324,5.324,0,0,1-4.594-2.328,10.847,10.847,0,0,1-1.656-6.387Q217.632,19.841,219.288,17.475Zm21.423,2.059a8.413,8.413,0,0,0,3.066,3.238,8.165,8.165,0,0,0,8.486-.006,8.437,8.437,0,0,0,3.055-3.244,9.474,9.474,0,0,0,0-8.9,8.324,8.324,0,0,0-3.067-3.232,8.2,8.2,0,0,0-8.474,0,8.3,8.3,0,0,0-3.072,3.232A9.475,9.475,0,0,0,240.711,19.534Zm13.367-.78a6.946,6.946,0,0,1-2.532,2.714,6.715,6.715,0,0,1-7.046.018,6.977,6.977,0,0,1-2.538-2.7,7.971,7.971,0,0,1,.006-7.443,6.892,6.892,0,0,1,2.544-2.679,6.689,6.689,0,0,1,3.5-.972,6.593,6.593,0,0,1,3.558,1.013,6.943,6.943,0,0,1,2.515,2.7A7.977,7.977,0,0,1,254.078,18.754Zm-5.9-2.779a1.783,1.783,0,0,1,1.305.4,1.8,1.8,0,0,1,.391,1.3,9.486,9.486,0,0,0,.154,2.3h1.839v-0.19a2.276,2.276,0,0,1-.16-0.676q-0.042-.4-0.042-1.37a3.828,3.828,0,0,0-.308-1.625,2.058,2.058,0,0,0-1.08-1,2.327,2.327,0,0,0,1.424-2.135,2.733,2.733,0,0,0-1.02-2.283,4.486,4.486,0,0,0-2.835-.8h-3.333V19.973h1.791v-4h1.874Zm-1.874-4.507h1.672a2.5,2.5,0,0,1,1.525.362,1.46,1.46,0,0,1,.421,1.18,1.15,1.15,0,0,1-.552,1.008,2.416,2.416,0,0,1-1.37.368h-1.7V11.469Z"/>
    </g>
  </g>
</svg>
